{"title":"Naruto Shippuuden - 358 [Hi10 720p] [ENG-SUBBED] [GWC].mp4","uid":9934267,"size":81040796,"categoryP":"video","categoryS":"tv_shows","magnet":"?xt=urn:btih:f3497f43bfdcb09bbf55f0a14e54577a6dfd2f86&amp;dn=Naruto+Shippuuden+-+358+%5BHi10+720p%5D+%5BENG-SUBBED%5D+%5BGWC%5D.mp4&amp;tr=udp%3A%2F%2Ftracker.openbittorrent.com%3A80&amp;tr=udp%3A%2F%2Fopen.demonii.com%3A1337&amp;tr=udp%3A%2F%2Ftracker.coppersurfer.tk%3A6969&amp;tr=udp%3A%2F%2Fexodus.desync.com%3A6969","seeders":1,"leechers":0,"uploader":"canc232","files":1,"time":1397147457,"description":"Naruto Shippuuden - 358 [Hi10 720p] [ENG-SUBBED] [GWC] \n\n\nSTORYLINE :\nThe story revolves mainly around Uzumaki Naruto's and Haruno Sakura's new adventures and their search for Uchiha Sasuke after he left Konoha-gakure (Leaf Village) to gain Orochimaru's power. The plot also shows a more active Akatsuki in their quest for obtaining all the tailed beasts.\nAfter his failed attempt to retrieve Sasuke, Naruto learns that circumstances have granted him slightly less than three years to prepare for a confrontation with Orochimaru, who has to wait that much time before he can transfer into Sasuke's body. Naruto also must prepare for his eventual confrontation with Akatsuki, who are after the demon sealed within him. To prepare, Naruto leaves the village and undergoes intensive training under Jiraiya. At the same time, Sakura becomes Tsunade's apprentice, and Sasuke trains under Orochimaru. Thus, all three members of the original Team 7 are now training under one of the Legendary Sannin. \n\n\nTHUMBNAIL IMAGE : &lt;a href=&quot;\nhttp://img203.imageshack.us/img203/5720/n7jc.jpg&quot; rel=&quot;nofollow&quot; target=&quot;_NEW&quot;&gt;\nhttp://img203.imageshack.us/img203/5720/n7jc.jpg&lt;/a&gt;\n\n\nMEDIA INFO :\nGeneral \nFormat : MPEG-4 \nFormat profile : Base Media \nFile size : 77.3 MiB \nDuration : 20mn 17s \nOverall bit rate mode : Variable \nOverall bit rate : 532 Kbps \n\nVideo \nFormat : AVC \nFormat profile : High &lt;a class=&quot;__cf_email__&quot; href=&quot;/cdn-cgi/l/email-protection&quot; data-cfemail=&quot;99a8a9d9d5adb7a8&quot;&gt;[email&amp;#160;protected]&lt;/a&gt;&lt;script cf-hash='f9e31' type=&quot;text/javascript&quot;&gt;\n/* &lt;![CDATA[ */!function(){try{var t=&quot;currentScript&quot;in document?document.currentScript:function(){for(var t=document.getElementsByTagName(&quot;script&quot;),e=t.length;e--;)if(t[e].getAttribute(&quot;cf-hash&quot;))return t[e]}();if(t&amp;&amp;t.previousSibling){var e,r,n,i,c=t.previousSibling,a=c.getAttribute(&quot;data-cfemail&quot;);if(a){for(e=&quot;&quot;,r=parseInt(a.substr(0,2),16),n=2;a.length-n;n+=2)i=parseInt(a.substr(n,2),16)^r,e+=String.fromCharCode(i);e=document.createTextNode(e),c.parentNode.replaceChild(e,c)}}}catch(u){}}();/* ]]&gt; */&lt;/script&gt; \nFormat settings, CABAC : Yes \nFormat settings, ReFrames : 10 frames \nDuration : 20mn 17s \nBit rate : 454 Kbps \nMaximum bit rate : 2 834 Kbps \nWidth : 1 280 pixels \nHeight : 720 pixels \nDisplay aspect ratio : 16:9 \nFrame rate mode : Variable \nStream size : 65.8 MiB (85%) \nTitle : Naruto Shippuuden - 358 [Hi10 720p] [ENG-SUBBED] [GWC] \nLanguage : English \n\nAudio \nFormat : AAC \nFormat profile : HE-AAC / LC \nDuration : 20mn 17s \nBit rate mode : Variable \nChannel(s) : 2 channels \nSampling rate : 48.0 KHz / 24.0 KHz \nStream size : 10.8 MiB (14%) \nLanguage : Japanese \n\nText \nFormat : Timed Text \nTitle : [GWC] \nLanguage : English ","torrent":{"xt":"urn:btih:f3497f43bfdcb09bbf55f0a14e54577a6dfd2f86","amp;dn":"Naruto+Shippuuden+-+358+%5BHi10+720p%5D+%5BENG-SUBBED%5D+%5BGWC%5D.mp4","amp;tr":["udp%3A%2F%2Ftracker.openbittorrent.com%3A80","udp%3A%2F%2Fopen.demonii.com%3A1337","udp%3A%2F%2Ftracker.coppersurfer.tk%3A6969","udp%3A%2F%2Fexodus.desync.com%3A6969"],"infoHash":"f3497f43bfdcb09bbf55f0a14e54577a6dfd2f86","infoHashBuffer":{"type":"Buffer","data":[243,73,127,67,191,220,176,155,191,85,240,161,78,84,87,122,109,253,47,134]},"announce":[],"urlList":[]}}